<svg xmlns="http://www.w3.org/2000/svg" xmlns:xlink="http://www.w3.org/1999/xlink" width="250" zoomAndPan="magnify" viewBox="0 0 187.5 74.999997" height="100" preserveAspectRatio="xMidYMid meet" version="1.0"><defs><g/><clipPath id="id1"><path d="M 11 13.246094 L 36.808594 13.246094 L 36.808594 48 L 11 48 Z M 11 13.246094 " clip-rule="nonzero"/></clipPath><clipPath id="id2"><path d="M 18 53 L 27 53 L 27 61.996094 L 18 61.996094 Z M 18 53 " clip-rule="nonzero"/></clipPath><clipPath id="id3"><path d="M 11 13.246094 L 36.808594 13.246094 L 36.808594 49 L 11 49 Z M 11 13.246094 " clip-rule="nonzero"/></clipPath><clipPath id="id4"><path d="M 18 53 L 28 53 L 28 61.996094 L 18 61.996094 Z M 18 53 " clip-rule="nonzero"/></clipPath></defs><g clip-path="url(#id1)"><path fill="rgb(100%, 70.979309%, 70.979309%)" d="M 22.628906 47.882812 C 20.863281 47.882812 19.429688 46.449219 19.429688 44.675781 L 19.429688 43.394531 C 19.429688 37.300781 22.835938 34.269531 25.570312 31.832031 C 27.949219 29.71875 29.664062 28.191406 29.664062 24.792969 C 29.664062 22.359375 26.734375 20.300781 23.269531 20.300781 C 18.914062 20.300781 18.035156 22.445312 18.027344 22.464844 C 17.542969 24.167969 15.773438 25.15625 14.074219 24.667969 C 12.375 24.179688 11.390625 22.40625 11.875 20.703125 C 12.597656 18.171875 15.808594 13.886719 23.269531 13.886719 C 30.324219 13.886719 36.0625 18.777344 36.0625 24.792969 C 36.0625 31.078125 32.597656 34.15625 29.816406 36.632812 C 27.195312 38.964844 25.828125 40.324219 25.828125 43.394531 L 25.828125 44.675781 C 25.828125 46.449219 24.394531 47.882812 22.628906 47.882812 Z M 22.628906 47.882812 " fill-opacity="1" fill-rule="nonzero"/></g><g clip-path="url(#id2)"><path fill="rgb(100%, 70.979309%, 70.979309%)" d="M 26.464844 57.503906 C 26.464844 58.015625 26.367188 58.507812 26.175781 58.976562 C 25.980469 59.449219 25.703125 59.867188 25.34375 60.226562 C 24.980469 60.585938 24.566406 60.867188 24.097656 61.0625 C 23.625 61.257812 23.136719 61.355469 22.628906 61.355469 C 22.121094 61.355469 21.628906 61.257812 21.160156 61.0625 C 20.6875 60.867188 20.273438 60.585938 19.914062 60.226562 C 19.554688 59.867188 19.277344 59.449219 19.082031 58.976562 C 18.886719 58.507812 18.789062 58.015625 18.789062 57.503906 C 18.789062 56.996094 18.886719 56.503906 19.082031 56.03125 C 19.277344 55.5625 19.554688 55.144531 19.914062 54.785156 C 20.273438 54.421875 20.6875 54.144531 21.160156 53.949219 C 21.628906 53.753906 22.121094 53.65625 22.628906 53.65625 C 23.136719 53.65625 23.625 53.753906 24.097656 53.949219 C 24.566406 54.144531 24.980469 54.421875 25.34375 54.785156 C 25.703125 55.144531 25.980469 55.5625 26.175781 56.03125 C 26.367188 56.503906 26.464844 56.996094 26.464844 57.503906 Z M 26.464844 57.503906 " fill-opacity="1" fill-rule="nonzero"/></g><g clip-path="url(#id3)"><path fill="rgb(60.778809%, 0%, 0%)" d="M 22.628906 48.523438 C 20.511719 48.523438 18.789062 46.796875 18.789062 44.675781 L 18.789062 43.394531 C 18.789062 37.011719 22.316406 33.875 25.148438 31.355469 C 27.480469 29.277344 29.023438 27.90625 29.023438 24.792969 C 29.023438 22.742188 26.335938 20.941406 23.269531 20.941406 C 19.667969 20.941406 18.730469 22.5 18.628906 22.691406 C 18.027344 24.699219 15.917969 25.863281 13.898438 25.285156 C 11.863281 24.703125 10.679688 22.566406 11.261719 20.527344 C 12.03125 17.820312 15.429688 13.246094 23.269531 13.246094 C 30.675781 13.246094 36.703125 18.425781 36.703125 24.792969 C 36.703125 31.363281 33.121094 34.550781 30.242188 37.109375 C 27.691406 39.378906 26.464844 40.59375 26.464844 43.394531 L 26.464844 44.675781 C 26.464844 46.796875 24.746094 48.523438 22.628906 48.523438 Z M 23.269531 19.660156 C 27.082031 19.660156 30.304688 22.011719 30.304688 24.792969 C 30.304688 28.480469 28.402344 30.171875 25.996094 32.3125 C 23.355469 34.664062 20.070312 37.585938 20.070312 43.394531 L 20.070312 44.675781 C 20.070312 46.089844 21.21875 47.242188 22.628906 47.242188 C 24.039062 47.242188 25.1875 46.089844 25.1875 44.675781 L 25.1875 43.394531 C 25.1875 40.054688 26.707031 38.542969 29.390625 36.152344 C 32.078125 33.761719 35.421875 30.785156 35.421875 24.792969 C 35.421875 19.132812 29.96875 14.527344 23.269531 14.527344 C 16.191406 14.527344 13.164062 18.519531 12.492188 20.878906 C 12.105469 22.238281 12.890625 23.660156 14.25 24.050781 C 15.609375 24.4375 17.023438 23.648438 17.410156 22.289062 C 17.421875 22.261719 18.390625 19.660156 23.269531 19.660156 Z M 23.269531 19.660156 " fill-opacity="1" fill-rule="nonzero"/></g><g clip-path="url(#id4)"><path fill="rgb(60.778809%, 0%, 0%)" d="M 22.628906 61.996094 C 20.160156 61.996094 18.152344 59.980469 18.152344 57.503906 C 18.152344 55.027344 20.160156 53.015625 22.628906 53.015625 C 25.097656 53.015625 27.105469 55.027344 27.105469 57.503906 C 27.105469 59.980469 25.097656 61.996094 22.628906 61.996094 Z M 22.628906 54.296875 C 20.863281 54.296875 19.429688 55.738281 19.429688 57.503906 C 19.429688 59.273438 20.863281 60.710938 22.628906 60.710938 C 24.390625 60.710938 25.828125 59.273438 25.828125 57.503906 C 25.828125 55.738281 24.390625 54.296875 22.628906 54.296875 Z M 22.628906 54.296875 " fill-opacity="1" fill-rule="nonzero"/></g><path fill="rgb(60.778809%, 0%, 0%)" d="M 22.628906 59.429688 C 22.214844 59.429688 21.816406 59.292969 21.476562 59.035156 C 21.335938 58.929688 21.308594 58.730469 21.414062 58.589844 C 21.519531 58.445312 21.71875 58.417969 21.863281 58.523438 C 22.089844 58.695312 22.355469 58.789062 22.628906 58.789062 C 23.332031 58.789062 23.90625 58.210938 23.90625 57.503906 C 23.90625 56.796875 23.332031 56.222656 22.628906 56.222656 C 22.539062 56.222656 22.453125 56.230469 22.371094 56.25 C 22.199219 56.28125 22.03125 56.171875 21.996094 55.996094 C 21.960938 55.824219 22.074219 55.65625 22.246094 55.621094 C 22.371094 55.59375 22.496094 55.582031 22.628906 55.582031 C 23.6875 55.582031 24.546875 56.445312 24.546875 57.503906 C 24.546875 58.566406 23.6875 59.429688 22.628906 59.429688 Z M 22.628906 59.429688 " fill-opacity="1" fill-rule="nonzero"/><path fill="rgb(60.778809%, 0%, 0%)" d="M 21.066406 57.503906 C 21.042969 57.503906 21.023438 57.503906 21 57.5 C 20.828125 57.460938 20.71875 57.289062 20.753906 57.117188 C 20.8125 56.835938 20.929688 56.574219 21.101562 56.347656 C 21.210938 56.207031 21.410156 56.179688 21.550781 56.285156 C 21.691406 56.394531 21.71875 56.59375 21.613281 56.738281 C 21.496094 56.886719 21.417969 57.058594 21.378906 57.25 C 21.347656 57.402344 21.214844 57.503906 21.066406 57.503906 Z M 21.066406 57.503906 " fill-opacity="1" fill-rule="nonzero"/><path fill="rgb(60.778809%, 0%, 0%)" d="M 24.226562 16.507812 C 24.21875 16.507812 24.210938 16.507812 24.203125 16.507812 L 24.042969 16.496094 C 23.890625 16.480469 23.734375 16.46875 23.578125 16.464844 C 23.402344 16.460938 23.261719 16.3125 23.269531 16.136719 C 23.273438 15.960938 23.417969 15.839844 23.597656 15.824219 C 23.765625 15.828125 23.929688 15.84375 24.09375 15.855469 L 24.25 15.867188 C 24.425781 15.878906 24.558594 16.035156 24.546875 16.210938 C 24.535156 16.378906 24.394531 16.507812 24.226562 16.507812 Z M 24.226562 16.507812 " fill-opacity="1" fill-rule="nonzero"/><path fill="rgb(60.778809%, 0%, 0%)" d="M 28.066406 17.417969 C 28.023438 17.417969 27.984375 17.410156 27.941406 17.394531 C 27.140625 17.058594 26.304688 16.808594 25.449219 16.660156 C 25.277344 16.628906 25.160156 16.460938 25.191406 16.285156 C 25.222656 16.113281 25.386719 15.996094 25.5625 16.027344 C 26.460938 16.1875 27.34375 16.449219 28.1875 16.804688 C 28.351562 16.871094 28.429688 17.058594 28.359375 17.222656 C 28.308594 17.34375 28.191406 17.417969 28.066406 17.417969 Z M 28.066406 17.417969 " fill-opacity="1" fill-rule="nonzero"/><path fill="rgb(60.778809%, 0%, 0%)" d="M 30.597656 33.128906 C 30.519531 33.128906 30.441406 33.101562 30.378906 33.042969 C 30.25 32.921875 30.242188 32.71875 30.363281 32.589844 C 31.917969 30.945312 33.503906 28.730469 33.503906 24.792969 C 33.503906 22.546875 32.410156 20.441406 30.425781 18.855469 C 30.285156 18.746094 30.261719 18.542969 30.375 18.40625 C 30.484375 18.265625 30.6875 18.242188 30.824219 18.351562 C 32.964844 20.0625 34.144531 22.347656 34.144531 24.792969 C 34.144531 28.980469 32.371094 31.394531 30.828125 33.03125 C 30.765625 33.097656 30.683594 33.128906 30.597656 33.128906 Z M 30.597656 33.128906 " fill-opacity="1" fill-rule="nonzero"/><g fill="rgb(100%, 70.979309%, 70.979309%)" fill-opacity="1"><g transform="translate(45.801564, 42.817876)"><g><path d="M 18.898438 0 L 17.675781 -14.816406 L 13.289062 -14.816406 L 10.089844 -5.515625 L 6.929688 -14.816406 L 2.542969 -14.816406 L 1.300781 0 L 4.378906 0 L 5.363281 -11.167969 L 9.117188 0 L 11.105469 0 L 14.859375 -11.167969 L 15.832031 0 Z M 18.898438 0 "/></g></g><g transform="translate(66.001757, 42.817876)"><g><path d="M 11.832031 0 L 14.980469 0 L 9.527344 -14.816406 L 5.761719 -14.816406 L 0.308594 0 L 3.457031 0 L 4.53125 -3.054688 L 10.757812 -3.054688 Z M 5.433594 -5.628906 L 7.648438 -11.914062 L 9.855469 -5.628906 Z M 5.433594 -5.628906 "/></g></g><g transform="translate(81.29033, 42.817876)"><g><path d="M 8.480469 0.203125 C 11.78125 0.203125 14.425781 -1.496094 15.484375 -4.304688 L 12.613281 -5.351562 C 11.957031 -3.628906 10.386719 -2.625 8.480469 -2.625 C 5.925781 -2.625 3.96875 -4.417969 3.96875 -7.414062 C 3.96875 -10.40625 5.925781 -12.191406 8.480469 -12.191406 C 10.386719 -12.191406 11.957031 -11.195312 12.613281 -9.472656 L 15.484375 -10.519531 C 14.425781 -13.328125 11.78125 -15.023438 8.480469 -15.023438 C 4.121094 -15.023438 0.902344 -12.070312 0.902344 -7.414062 C 0.902344 -2.757812 4.121094 0.203125 8.480469 0.203125 Z M 8.480469 0.203125 "/></g></g><g transform="translate(97.378708, 42.817876)"><g><path d="M 10.511719 -14.816406 L 0.410156 -14.816406 L 0.410156 -12.109375 L 3.949219 -12.109375 L 3.949219 0 L 6.992188 0 L 6.992188 -12.109375 L 10.511719 -12.109375 Z M 10.511719 -14.816406 "/></g></g><g transform="translate(108.299117, 42.817876)"><g><path d="M 6.847656 0.203125 C 10.078125 0.203125 12.375 -1.40625 12.375 -4.222656 C 12.375 -7.230469 9.742188 -8.078125 7.496094 -8.757812 C 5.8125 -9.257812 4.359375 -9.609375 4.359375 -10.847656 C 4.359375 -11.988281 5.414062 -12.507812 6.65625 -12.507812 C 8.050781 -12.507812 9.042969 -11.863281 9.503906 -10.4375 L 12.292969 -11.125 C 11.699219 -13.964844 9.074219 -15.023438 6.46875 -15.023438 C 3.496094 -15.023438 1.242188 -13.464844 1.242188 -10.734375 C 1.242188 -7.96875 3.566406 -7.175781 5.742188 -6.5 C 7.546875 -5.945312 9.1875 -5.515625 9.199219 -4.058594 C 9.207031 -2.859375 8.214844 -2.308594 6.902344 -2.308594 C 5.351562 -2.308594 4.203125 -3.097656 3.773438 -4.796875 L 0.726562 -4.101562 C 1.179688 -1.324219 3.660156 0.203125 6.847656 0.203125 Z M 6.847656 0.203125 "/></g></g><g transform="translate(121.598432, 42.817876)"><g/></g><g transform="translate(127.05351, 42.817876)"><g><path d="M 16.582031 0.613281 L 14.253906 -2.070312 C 15.492188 -3.382812 16.222656 -5.207031 16.222656 -7.414062 C 16.222656 -12.070312 12.960938 -15.023438 8.550781 -15.023438 C 4.140625 -15.023438 0.882812 -12.070312 0.882812 -7.414062 C 0.882812 -2.769531 4.140625 0.203125 8.550781 0.203125 C 9.566406 0.203125 10.519531 0.0507812 11.390625 -0.257812 L 13.238281 1.816406 Z M 3.949219 -7.414062 C 3.949219 -10.40625 5.945312 -12.191406 8.550781 -12.191406 C 11.15625 -12.191406 13.15625 -10.40625 13.15625 -7.414062 C 13.15625 -4.253906 11.15625 -2.472656 8.550781 -2.472656 C 5.945312 -2.472656 3.949219 -4.253906 3.949219 -7.414062 Z M 3.949219 -7.414062 "/></g></g></g><g fill="rgb(100%, 70.979309%, 70.979309%)" fill-opacity="1"><g transform="translate(144.341595, 42.817876)"><g><path d="M 8.511719 -10.539062 L 8.511719 -4.726562 C 8.5 -2.789062 7.394531 -2.171875 6.171875 -2.171875 C 5.148438 -2.171875 4.277344 -2.6875 4.277344 -4.082031 L 4.277344 -10.539062 L 1.3125 -10.539062 L 1.3125 -3.445312 C 1.3125 -1.117188 2.707031 0.203125 5.238281 0.203125 C 6.683594 0.203125 7.855469 -0.339844 8.59375 -1.269531 L 8.664062 0 L 11.464844 0 L 11.464844 -10.539062 Z M 8.511719 -10.539062 "/></g></g><g transform="translate(157.333293, 42.817876)"><g><path d="M 3.035156 -12.121094 C 3.949219 -12.121094 4.726562 -12.878906 4.726562 -13.820312 C 4.726562 -14.753906 3.949219 -15.515625 3.035156 -15.515625 C 2.101562 -15.515625 1.324219 -14.753906 1.324219 -13.820312 C 1.324219 -12.878906 2.101562 -12.121094 3.035156 -12.121094 Z M 1.527344 0 L 4.5 0 L 4.5 -10.539062 L 1.527344 -10.539062 Z M 1.527344 0 "/></g></g><g transform="translate(163.362589, 42.817876)"><g><path d="M 9.21875 -10.539062 L 0.75 -10.539062 L 0.75 -8.265625 L 5.003906 -8.265625 L 0.390625 0 L 9.074219 0 L 9.074219 -2.277344 L 4.582031 -2.277344 Z M 9.21875 -10.539062 "/></g></g></g></svg>